<svg xmlns="http://www.w3.org/2000/svg" width="512" height="512" viewBox="0 0 512 512">
  <defs>
    <linearGradient id="grad1" x1="0%" y1="0%" x2="100%" y2="100%">
      <stop offset="0%" style="stop-color:#4A1D96;stop-opacity:1" />
      <stop offset="100%" style="stop-color:#8B5CF6;stop-opacity:1" />
    </linearGradient>
  </defs>
  <rect width="512" height="512" rx="80" fill="white"/>
  <circle cx="256" cy="236" r="160" fill="url(#grad1)" />
  <path d="M 200 160 Q 170 160 150 180 Q 130 200 130 236 Q 130 272 150 292 Q 170 312 200 312 L 240 312 Q 270 312 290 292 Q 310 272 310 236 Q 310 200 290 180 Q 270 160 240 160 L 200 160 Z" fill="white" />
  <path d="M 200 200 Q 185 200 175 210 Q 165 220 165 236 Q 165 252 175 262 Q 185 272 200 272 L 240 272 Q 255 272 265 262 Q 275 252 275 236 Q 275 220 265 210 Q 255 200 240 200 L 200 200 Z" fill="url(#grad1)" />
  <path d="M 275 252 L 320 320" stroke="white" stroke-width="25" stroke-linecap="round" />
</svg> 